<svg xmlns="http://www.w3.org/2000/svg" xmlns:xlink="http://www.w3.org/1999/xlink" width="219.608" height="108.038" viewBox="0 0 219.608 108.038">
  <defs>
    <filter id="Path_1" x="0" y="0" width="219.608" height="79.085" filterUnits="userSpaceOnUse">
      <feOffset dy="3" input="SourceAlpha"/>
      <feGaussianBlur stdDeviation="3" result="blur"/>
      <feFlood flood-opacity="0.161"/>
      <feComposite operator="in" in2="blur"/>
      <feComposite in="SourceGraphic"/>
    </filter>
    <filter id="Systems" x="50.321" y="71.038" width="114" height="37" filterUnits="userSpaceOnUse">
      <feOffset dy="3" input="SourceAlpha"/>
      <feGaussianBlur stdDeviation="3" result="blur-2"/>
      <feFlood flood-opacity="0.161"/>
      <feComposite operator="in" in2="blur-2"/>
      <feComposite in="SourceGraphic"/>
    </filter>
  </defs>
  <g id="Group_1" data-name="Group 1" transform="translate(-101 -35.947)">
    <g id="Layer_x0020_1" transform="translate(110 41.947)">
      <g transform="matrix(1, 0, 0, 1, -9, -6)" filter="url(#Path_1)">
        <path id="Path_1-2" data-name="Path 1" d="M987.926,1261.058c-1.736-20.209-27.021-33.4-45.366-20.1-6.044,4.382-12.588,11.715-18.338,17.26-6.487,6.254-11.617,11.283-18.006,17.57-5.567,5.478-13.812,13.584-25.718,8.476-8.4-3.6-13.444-13.718-9.785-25.087,5.125-15.925,27.2-15.608,33.535-3.87,1.272,2.354,2.709,9,5.517,12.178,2.62-3.682,4.381-4.852,7.179-8.85-3.944-21.914-32.923-31.157-49.868-13.516-15.564,16.2-8.359,44.974,12.372,50.21,23.614,5.964,41.3-18.19,50.873-27.62,3.812-3.754,16.858-17.865,21.036-19.629,12.084-5.1,21.009,1.718,25.035,9.993-9.3,1.768-21.727-.662-29.473,1.006-5.312,1.144-13.265,10.182-16.312,14.8,2.622,13.325,13.9,22.789,29.608,22.484,18.863-.367,40.574-27.432,56.7-43.686,10.934-11.019,25.671-6.583,30.874,5.676-23.1,2.611-29.444-7.482-45.842,15.525,5.75,28.61,47.393,31.077,57.006,2.925l-7.294-3.309c-7.885,3.488-6.911,12.736-22,12.4-10.738-.24-15.8-7.141-17.644-17.151l48.268.034c.151-16.811-8.615-29.036-22.425-31.994-20.631-4.421-28.542,8.244-37.108,16.677-8.522,8.39-18.775,19.752-27.316,26.906-13.226,11.077-29.937,5.635-32.671-11.743,45.6,1.284,32.714,1.55,47.156-7.566Z" transform="translate(-849.68 -1229.59)" fill="#fff" fill-rule="evenodd"/>
      </g>
    </g>
    <g transform="matrix(1, 0, 0, 1, 101, 35.95)" filter="url(#Systems)">
      <text id="Systems-2" data-name="Systems" transform="translate(59.32 92.04)" fill="#fff" font-size="14" font-family="Roboto-Light, Roboto" font-weight="300" letter-spacing="0.4em"><tspan x="0" y="0">SYSTEMS</tspan></text>
    </g>
  </g>
</svg>
